# xmcd
#
# Track frame offsets:
#	150
#	16590
#	34037
#	48195
#	65493
#	80977
#	100626
#	125732
#	144652
#	162013
#	168714
#	186124
#	201626
#	220490
#	241407
#	259187
#
# Disc length: 3683 seconds
#
# Revision: 0
# Processed by: cddbd v1.5.1PL2 Copyright (c) Steve Scherf et al.
# Submitted via: EasyCDDAExtractor 4.5.0.1
#
DISCID=ea0e6110
DTITLE=CAMILO SESTO - DONDE ESTES, CON QUIEN ESTES
DYEAR=1900
DGENRE=
TTITLE0=Acompaname
TTITLE1=Alma De Nadie
TTITLE2=Con el viento a tu favor
TTITLE3=Dejarse querer (no sirve de nada)
TTITLE4=Después de ti
TTITLE5=Donde estés, con quién estés
TTITLE6=El Amor De Mi Vida
TTITLE7=En Tus Manos
TTITLE8=Enamorate de mi
TTITLE9=Estoy desnudo
TTITLE10=La culpa ha sido mia
TTITLE11=Mi mundo, tú
TTITLE12=Pista 06
TTITLE13=Mientras me sigas necesitando
TTITLE14=Perdóname
TTITLE15=Que Dificil es ser feliz
EXTD=
EXTT0=
EXTT1=
EXTT2=
EXTT3=
EXTT4=
EXTT5=
EXTT6=
EXTT7=
EXTT8=
EXTT9=
EXTT10=
EXTT11=
EXTT12=
EXTT13=
EXTT14=
EXTT15=
PLAYORDER=
